<svg width="84" height="49" viewBox="0 0 84 49" fill="none" xmlns="http://www.w3.org/2000/svg">
<g id="C.L">
<path id="l" d="M54.7255 48V0.639999H62.9175V40.896H83.6535V48H54.7255Z" fill="#D3D9D4"/>
<path id="dot" d="M42.622 48.48C41.0007 48.48 39.6887 48.0107 38.686 47.072C37.7047 46.1333 37.214 44.8747 37.214 43.296C37.214 41.696 37.7047 40.4267 38.686 39.488C39.6673 38.5493 40.9793 38.08 42.622 38.08C44.2433 38.08 45.5447 38.56 46.526 39.52C47.5073 40.4587 47.998 41.7173 47.998 43.296C47.998 44.8533 47.4967 46.112 46.494 47.072C45.5127 48.0107 44.222 48.48 42.622 48.48Z" fill="#D3D9D4"/>
<path id="c" d="M22.544 48.608C15.4187 48.608 9.98934 46.6987 6.25601 42.88C2.52267 39.04 0.656006 32.8853 0.656006 24.416C0.656006 16.1387 2.57601 10.0053 6.41601 6.016C10.256 2.02666 15.8133 0.0319977 23.088 0.0319977C26.416 0.0319977 29.5627 0.415998 32.528 1.184V8.128C29.712 7.36 26.7573 6.976 23.664 6.976C20.4 6.976 17.712 7.54133 15.6 8.672C13.488 9.80267 11.8987 11.6373 10.832 14.176C9.76534 16.7147 9.23201 20.0853 9.23201 24.288C9.23201 28.6187 9.76534 32.0533 10.832 34.592C11.8987 37.1307 13.4667 38.944 15.536 40.032C17.6053 41.12 20.24 41.664 23.44 41.664C26.1707 41.664 29.2 41.1413 32.528 40.096V47.008C31.1413 47.52 29.5733 47.9147 27.824 48.192C26.096 48.4693 24.336 48.608 22.544 48.608Z" fill="#D3D9D4"/>
</g>
</svg>
