<svg width="329" height="69" viewBox="0 0 329 69" fill="none" xmlns="http://www.w3.org/2000/svg">
<g id="Code-Library">
<path id="y" d="M321.832 17.78H321.474L321.358 18.1184L311.499 46.9938L301.793 18.1207L301.679 17.78H301.32H296.008H295.301L295.536 18.446L307.76 53.166L307.878 53.5H308.232H309.026L304.241 66.912L304.002 67.58H304.712H309.704H310.057L310.175 67.2463L327.391 18.4463L327.626 17.78H326.92H321.832Z" fill="#D3D9D4" stroke="#D3D9D4"/>
<path id="r2" d="M277.573 17.78H277.073V18.28V53V53.5H277.573H282.565H283.065V53V27.8561C283.951 26.3724 285.16 25.2288 286.702 24.4186L286.704 24.4175C288.324 23.5563 289.961 23.132 291.621 23.132C292.586 23.132 293.413 23.1845 294.108 23.2867L294.681 23.3709V22.792V18.12V17.69L294.256 17.6256C293.523 17.5147 292.73 17.46 291.877 17.46C289.901 17.46 288.052 17.9046 286.337 18.7951C284.856 19.5457 283.6 20.6017 282.571 21.9557L282.263 18.2388L282.225 17.78H281.765H277.573Z" fill="#D3D9D4" stroke="#D3D9D4"/>
<path id="a" d="M262.854 50.8536C263.087 50.6206 263.513 50.1946 263.893 49.8685C263.898 49.951 263.904 50.0349 263.911 50.1187C263.943 50.5191 263.995 50.9821 264.05 51.4181C264.105 51.8551 264.164 52.2696 264.208 52.5746C264.231 52.7272 264.25 52.8527 264.263 52.9401L264.278 53.0414L264.283 53.0682L264.284 53.0752L264.284 53.077L264.284 53.0775L264.284 53.0776L264.778 53L264.284 53.0777L264.35 53.5H264.778H268.97H269.47V53V30.056C269.47 26.9633 268.996 24.4527 268.006 22.5621C267.035 20.6668 265.56 19.3047 263.596 18.4913C261.679 17.667 259.249 17.268 256.33 17.268C254.766 17.268 253.12 17.3983 251.392 17.6575L251.391 17.6577C249.683 17.9171 248.14 18.275 246.764 18.7337L246.422 18.8476V19.208V23.336V24.0329L247.082 23.8096C248.505 23.3284 249.97 22.9726 251.477 22.7423L251.477 22.7423L251.484 22.7412C252.998 22.4889 254.389 22.364 255.658 22.364C257.588 22.364 259.097 22.5957 260.211 23.0334L260.211 23.0334L260.214 23.0345C261.317 23.4601 262.129 24.187 262.67 25.2302L262.67 25.2302L262.673 25.2366C263.237 26.286 263.542 27.7923 263.542 29.8V32.6145L256.792 33.3345C252.609 33.723 249.438 34.7856 247.362 36.5904C245.289 38.39 244.278 40.93 244.278 44.136C244.278 46.168 244.698 47.9433 245.561 49.4415C246.423 50.9389 247.661 52.0838 249.261 52.8725C250.857 53.6592 252.706 54.044 254.794 54.044C256.799 54.044 258.641 53.6691 260.312 52.9114L260.312 52.9114L260.317 52.9091C261.664 52.2804 262.203 51.6256 262.577 51.1707C262.677 51.0493 262.765 50.9422 262.854 50.8536ZM257.213 37.6894L257.213 37.6894L263.542 37.0418V45.1946C262.557 46.5859 261.432 47.5797 260.173 48.1994C258.853 48.8495 257.488 49.172 256.074 49.172C254.128 49.172 252.723 48.6917 251.78 47.8072C250.864 46.9078 250.366 45.5435 250.366 43.624C250.366 41.8123 250.915 40.4791 251.959 39.5493L251.959 39.5493L251.962 39.546C253.022 38.5828 254.743 37.9406 257.213 37.6894Z" fill="#D3D9D4" stroke="#D3D9D4"/>
<path id="r1" d="M226.323 17.78H225.823V18.28V53V53.5H226.323H231.315H231.815V53V27.8561C232.701 26.3724 233.91 25.2288 235.452 24.4186L235.454 24.4175C237.074 23.5563 238.711 23.132 240.371 23.132C241.336 23.132 242.163 23.1845 242.858 23.2867L243.431 23.3709V22.792V18.12V17.69L243.006 17.6256C242.273 17.5147 241.48 17.46 240.627 17.46C238.651 17.46 236.802 17.9046 235.087 18.7951C233.606 19.5457 232.35 20.6017 231.321 21.9557L231.013 18.2388L230.975 17.78H230.515H226.323Z" fill="#D3D9D4" stroke="#D3D9D4"/>
<path id="b" d="M192.26 52.136V52.4928L192.598 52.6088C193.998 53.09 195.575 53.459 197.327 53.7186C199.078 53.978 200.799 54.108 202.488 54.108C208.128 54.108 212.444 52.5275 215.341 49.2851C218.229 46.0535 219.629 41.2561 219.629 34.984C219.629 30.8497 219.07 27.4475 217.924 24.8027C216.807 22.1759 215.288 20.237 213.343 19.0383C211.422 17.8543 209.228 17.268 206.777 17.268C204.834 17.268 203.074 17.6433 201.505 18.405C200.243 19 199.157 19.7598 198.253 20.6858V1.288V0.787998H197.753H192.76H192.26V1.288V52.136ZM201.726 22.9458L201.729 22.9444C202.312 22.6439 203.098 22.5218 203.973 22.4856C204.539 22.4621 205.092 22.4746 205.624 22.4866C205.923 22.4934 206.215 22.5 206.5 22.5C207.808 22.5 208.63 22.7448 209.301 23.1827C209.994 23.6354 210.568 24.3188 211.343 25.3082C212.768 27.1299 213.54 30.4576 213.54 35.432C213.54 39.7244 212.415 42.4576 211.409 44.8984C211.282 45.2075 211.157 45.512 211.036 45.8143C210.534 47.0676 210.203 47.6329 209.708 47.9892C209.192 48.361 208.437 48.5533 206.911 48.8279C205.965 48.9982 204.516 49 203.5 49C203.036 49 201.819 48.8796 200.591 48.7335C199.669 48.6238 198.783 48.5046 198.253 48.4207C198.257 43.4982 198.337 39.1635 198.412 35.0666C198.469 31.9595 198.523 28.9891 198.54 26.0029L198.541 25.9947L198.54 25.9865C198.527 25.4774 198.896 24.9071 199.577 24.323C200.234 23.7592 201.068 23.2805 201.726 22.9458Z" fill="#D3D9D4" stroke="#D3D9D4"/>
<path id="i" d="M178.385 53V53.5H178.885H183.877H184.377V53V18.28V17.78H183.877H178.885H178.385V18.28V53ZM178.417 10.2304L178.417 10.2305L178.424 10.2363C179.163 10.8989 180.172 11.196 181.381 11.196C182.569 11.196 183.56 10.8988 184.278 10.2334C185.022 9.56467 185.369 8.63919 185.369 7.528C185.369 6.41855 185.023 5.49423 184.282 4.82577C183.564 4.13743 182.572 3.828 181.381 3.828C180.168 3.828 179.156 4.13813 178.417 4.8258C177.695 5.49615 177.361 6.42077 177.361 7.528C177.361 8.63533 177.695 9.56003 178.417 10.2304Z" fill="#D3D9D4" stroke="#D3D9D4"/>
<path id="l" d="M146.712 53V53.5H147.212H173.964H174.464V53V48.584V48.084H173.964H152.768V5.64V5.14H152.268H147.212H146.712V5.64V53Z" fill="#D3D9D4" stroke="#D3D9D4"/>
<path id="dot" d="M138.192 52.8211L138.192 52.8212L138.198 52.8153C138.97 52.068 139.342 51.0887 139.342 49.928C139.342 48.7493 138.972 47.758 138.198 47.0087C137.426 46.2623 136.418 45.908 135.226 45.908C134.034 45.908 133.026 46.2623 132.254 47.0087C131.48 47.758 131.11 48.7493 131.11 49.928C131.11 51.1063 131.48 52.0911 132.26 52.8211C133.032 53.5433 134.038 53.884 135.226 53.884C136.414 53.884 137.42 53.5433 138.192 52.8211Z" fill="#D3D9D4" stroke="#D3D9D4"/>
<path id="e" d="M125.916 37.82H126.416V37.32V35.752C126.416 29.5273 125.336 24.8528 123.086 21.8228C120.846 18.7766 117.593 17.268 113.404 17.268C109.111 17.268 105.717 18.7842 103.285 21.8407C100.857 24.8921 99.688 29.5175 99.688 35.624C99.688 39.9503 100.268 43.4924 101.458 46.2236C102.648 48.9584 104.427 50.9807 106.799 52.2564L106.799 52.2564L106.804 52.259C109.179 53.5019 112.145 54.108 115.676 54.108C118.522 54.108 121.428 53.6734 124.392 52.808L124.752 52.7029V52.328V48.2V47.5339L124.112 47.7199C121.135 48.5856 118.517 49.012 116.252 49.012C113.782 49.012 111.818 48.6347 110.33 47.9122C108.888 47.1801 107.78 45.9919 107.012 44.3141C106.304 42.7259 105.889 40.5698 105.79 37.82H125.916ZM119.586 26.6318L119.586 26.6318L119.588 26.6367C120.169 28.3014 120.503 30.5374 120.574 33.364H105.789C105.918 29.1628 106.645 26.2614 107.887 24.5604C109.193 22.7992 111.002 21.916 113.372 21.916C114.913 21.916 116.173 22.2798 117.183 22.9791C118.173 23.6643 118.987 24.8562 119.586 26.6318Z" fill="#D3D9D4" stroke="#D3D9D4"/>
<path id="d" d="M70.4477 22.0394L70.4476 22.0395C67.5356 25.2406 66.1255 30.0461 66.1255 36.36C66.1255 42.4422 67.3039 46.9726 69.7663 49.8379C72.2143 52.6865 75.4391 54.108 79.3935 54.108C81.3205 54.108 83.0749 53.7087 84.6462 52.9006C85.9591 52.2254 87.08 51.3647 88.0037 50.318L88.2719 53.0489L88.3162 53.5H88.7695H93.0255H93.5255V53V1.288V0.787998H93.0255H88.0335H87.5335V1.288V17.5214C85.9486 17.3316 84.5041 17.236 83.2015 17.236C77.6655 17.236 73.3849 18.813 70.4477 22.0394ZM85.5744 22.4885L85.5744 22.4886L85.5861 22.4897C86.2998 22.5577 86.9487 22.6391 87.5335 22.7336V44.9567C86.7769 46.1876 85.7797 47.1286 84.5375 47.789C83.2418 48.4566 81.8917 48.788 80.4815 48.788C78.7424 48.788 77.2914 48.4103 76.1055 47.6794C74.9714 46.9675 74.0247 45.7001 73.3016 43.8004C72.6062 41.9174 72.2455 39.2973 72.2455 35.912C72.2455 31.0049 73.1801 27.5666 74.9432 25.483C76.6977 23.4094 79.3846 22.332 83.1055 22.332C83.8725 22.332 84.6953 22.3838 85.5744 22.4885Z" fill="#D3D9D4" stroke="#D3D9D4"/>
<path id="o" d="M36.5766 49.5758L36.5778 49.5772C39.1206 52.6107 42.6849 54.108 47.201 54.108C51.7178 54.108 55.2726 52.5993 57.794 49.543C60.334 46.4899 61.557 41.8283 61.557 35.656C61.557 29.4844 60.345 24.8327 57.8256 21.8005C55.3032 18.7647 51.7374 17.268 47.201 17.268C42.6445 17.268 39.0678 18.7639 36.545 21.7998C34.0242 24.8118 32.813 29.4757 32.813 35.688C32.813 41.8608 34.0362 46.5228 36.5766 49.5758ZM54.4407 43.7479L54.4391 43.7524C53.7791 45.7119 52.8404 47.0541 51.6588 47.8486C50.4776 48.6357 49.0011 49.044 47.201 49.044C45.379 49.044 43.8928 48.6355 42.7127 47.8496C41.5524 47.0557 40.6129 45.7031 39.9308 43.7204C39.2724 41.7228 38.933 39.0101 38.933 35.56C38.933 32.1731 39.2726 29.526 39.9298 27.5946C40.6118 25.632 41.551 24.3009 42.7103 23.528C43.8908 22.7411 45.3778 22.332 47.201 22.332C49.0242 22.332 50.5112 22.7411 51.6916 23.528C52.8482 24.2991 53.7773 25.6379 54.4386 27.6221L54.4386 27.6221L54.4401 27.6265C55.1186 29.6003 55.469 32.3007 55.469 35.752C55.469 39.1384 55.1188 41.7958 54.4407 43.7479Z" fill="#D3D9D4" stroke="#D3D9D4"/>
<path id="c" d="M5.85414 48.2804L5.8551 48.2815C9.40993 52.1675 14.5531 54.076 21.2 54.076C24.7084 54.076 28.0384 53.5344 31.187 52.4487L31.524 52.3325V51.976V47.528V46.8315L30.8641 47.0543C29.1775 47.6235 27.5912 48.0434 26.1045 48.3157C24.6415 48.5663 23.1242 48.692 21.552 48.692C18.2622 48.692 15.5686 48.0842 13.4445 46.8998C11.3693 45.731 9.74962 43.7533 8.60803 40.9097C7.4682 38.0705 6.88402 34.1955 6.88402 29.256C6.88402 24.4247 7.45715 20.6131 8.57613 17.794C9.7159 14.9764 11.3657 12.9969 13.5072 11.8049L13.5072 11.8049L13.5103 11.8031C15.6757 10.5774 18.4428 9.948 21.84 9.948C25.1036 9.948 28.1154 10.3691 30.879 11.2065L31.524 11.402V10.728V6.312V5.93152L31.1573 5.83009C28.1045 4.9857 24.9449 4.564 21.68 4.564C14.8407 4.564 9.56779 6.53684 5.94858 10.5533C2.32914 14.57 0.572021 20.8843 0.572021 29.384C0.572021 38.0267 2.29456 44.3671 5.85414 48.2804Z" fill="#D3D9D4" stroke="#D3D9D4"/>
</g>
</svg>
