<svg width="340" height="69" viewBox="0 0 340 69" fill="none" xmlns="http://www.w3.org/2000/svg">
<g id="code.library - content">
<g id="Code-Library">
<path id="y" d="M331.698 17.684H331.334L331.222 18.0293L322.23 45.6726L313.422 18.0322L313.311 17.684H312.946H306.13H305.431L305.656 18.3454L317.528 53.1614L317.644 53.5H318.002H319.252L314.617 66.9167L314.388 67.58H315.09H321.522H321.879L321.995 67.2414L338.667 18.3454L338.892 17.684H338.194H331.698Z" fill="#D3D9D4" stroke="#D3D9D4"/>
<path id="r2" d="M286.565 17.684H286.065V18.184V53V53.5H286.565H293.029H293.529V53V28.5059C294.368 27.2155 295.509 26.2071 296.965 25.4792L296.967 25.478C298.502 24.7005 300.068 24.316 301.669 24.316C302.763 24.316 303.648 24.3793 304.335 24.5004L304.921 24.604V24.008V18.024V17.6141L304.52 17.5337C303.737 17.3772 302.904 17.3 302.021 17.3C300.045 17.3 298.205 17.7448 296.51 18.637C295.05 19.3961 293.831 20.4899 292.852 21.9069L292.438 18.1295L292.39 17.684H291.941H286.565Z" fill="#D3D9D4" stroke="#D3D9D4"/>
<path id="a" d="M272.413 50.4551C271.367 51.5317 270.007 52.3559 268.75 52.9412C267.119 53.7008 265.307 54.076 263.323 54.076C261.192 54.076 259.31 53.6803 257.691 52.8712L257.689 52.87C256.089 52.0586 254.843 50.8814 253.961 49.3448L253.958 49.3399L253.958 49.3399C253.099 47.8015 252.679 45.9968 252.679 43.944C252.679 40.6519 253.723 38.0474 255.86 36.2053L272.413 50.4551ZM272.413 50.4551L272.747 53.0636L272.803 53.5H273.243H278.587H279.087V53V30.568C279.087 27.3267 278.592 24.6991 277.56 22.7234C276.547 20.722 275.008 19.2843 272.958 18.4275C270.933 17.5602 268.353 17.14 265.243 17.14C263.616 17.14 261.907 17.2701 260.115 17.5291L260.115 17.5293C258.343 17.7885 256.738 18.1459 255.299 18.6035L254.951 18.7144V19.08V24.296V24.9833L255.605 24.7717C257.029 24.3108 258.497 23.9649 260.006 23.7343L260.006 23.7343L260.013 23.7332C261.527 23.4809 262.928 23.356 264.219 23.356C266.107 23.356 267.574 23.5774 268.646 23.994L268.646 23.994L268.649 23.9951C269.713 24.4016 270.48 25.0778 270.975 26.0307L270.975 26.0307L270.979 26.0376C271.499 27.0013 271.783 28.3898 271.783 30.248V32.2926L265.677 32.9181C261.303 33.2849 258.002 34.3566 255.861 36.2052L272.413 50.4551ZM268.808 47.3947L268.805 47.3961C267.653 47.9415 266.468 48.212 265.243 48.212C263.486 48.212 262.23 47.7836 261.394 47.0045C260.565 46.2109 260.111 45.0075 260.111 43.304C260.111 41.6628 260.607 40.4564 261.545 39.6116L261.546 39.6113C262.519 38.7333 264.091 38.1546 266.345 37.9459L266.347 37.9457L271.783 37.4224V44.8983C270.909 46.0533 269.916 46.8788 268.808 47.3947Z" fill="#D3D9D4" stroke="#D3D9D4"/>
<path id="r1" d="M233.753 17.684H233.253V18.184V53V53.5H233.753H240.217H240.717V53V28.5059C241.555 27.2155 242.697 26.2071 244.153 25.4792L244.155 25.478C245.69 24.7005 247.255 24.316 248.857 24.316C249.95 24.316 250.836 24.3793 251.522 24.5004L252.109 24.604V24.008V18.024V17.6141L251.707 17.5337C250.925 17.3772 250.091 17.3 249.209 17.3C247.233 17.3 245.393 17.7448 243.697 18.637C242.238 19.3961 241.019 20.4899 240.04 21.9068L239.626 18.1295L239.577 17.684H239.129H233.753Z" fill="#D3D9D4" stroke="#D3D9D4"/>
<path id="b" d="M204.33 53.6866L204.331 53.6867C206.253 53.9674 208.133 54.108 209.972 54.108C215.777 54.108 220.22 52.5274 223.204 49.2824C226.18 46.0454 227.624 41.2378 227.624 34.952C227.624 30.8593 227.064 27.469 225.92 24.8043C224.803 22.155 223.262 20.1953 221.276 18.9756C219.335 17.7494 217.141 17.14 214.708 17.14C212.806 17.14 211.077 17.516 209.529 18.2782C208.261 18.8852 207.176 19.6776 206.28 20.656V1.28799V0.787994H205.78H199.316H198.816V1.28799V52.008V52.3668L199.155 52.4817C200.703 53.0048 202.429 53.4057 204.33 53.6866ZM219.037 28.2415L219.037 28.2416L219.04 28.2482C219.692 29.9809 220.032 32.3978 220.032 35.528C220.032 40.076 219.192 43.2373 217.619 45.1283C216.055 47.0089 213.667 47.988 210.356 47.988C209.589 47.988 208.8 47.9362 207.988 47.8322C207.352 47.7484 206.783 47.6385 206.28 47.5039V26.6361C206.984 25.6999 207.869 24.9752 208.941 24.4584C210.069 23.9144 211.243 23.644 212.468 23.644C214.081 23.644 215.414 23.9906 216.493 24.6573C217.537 25.303 218.399 26.4701 219.037 28.2415Z" fill="#D3D9D4" stroke="#D3D9D4"/>
<path id="i" d="M184.287 4.34789C183.44 5.14535 183.042 6.23885 183.042 7.55999C183.042 8.8805 183.439 9.96753 184.293 10.7455C185.143 11.521 186.351 11.868 187.829 11.868C189.308 11.868 190.516 11.521 191.366 10.7455L191.029 10.376L191.366 10.7455C192.22 9.96753 192.617 8.8805 192.617 7.55999C192.617 6.23885 192.219 5.14535 191.372 4.34789C190.522 3.54746 189.312 3.18799 187.829 3.18799C186.347 3.18799 185.137 3.54746 184.287 4.34789ZM184.287 4.34789L184.63 4.71199L184.287 4.34789ZM184.066 53V53.5H184.566H191.061H191.561V53V18.184V17.684H191.061H184.566H184.066V18.184V53Z" fill="#D3D9D4" stroke="#D3D9D4"/>
<path id="l" d="M151.609 53V53.5H152.109H179.918H180.418V53V47.304V46.804H179.918H159.169V5.64V5.14H158.669H152.109H151.609V5.64V53Z" fill="#D3D9D4" stroke="#D3D9D4"/>
<path id="dot" d="M136.441 52.659C137.363 53.5323 138.573 53.948 140.017 53.948C141.464 53.948 142.674 53.5199 143.595 52.6245C144.537 51.7296 144.997 50.5584 144.997 49.16C144.997 47.7458 144.552 46.5636 143.63 45.6658C142.707 44.7673 141.484 44.34 140.017 44.34C138.57 44.34 137.36 44.768 136.439 45.6634C135.512 46.5429 135.069 47.7288 135.069 49.16C135.069 50.5925 135.512 51.7792 136.441 52.659Z" fill="#D3D9D4" stroke="#D3D9D4"/>
<path id="e" d="M130.531 38.14H131.031V37.64V35.72C131.031 29.5537 129.917 24.8805 127.604 21.7885C125.276 18.6773 121.884 17.14 117.507 17.14C113.007 17.14 109.453 18.6841 106.912 21.8036C104.376 24.8965 103.151 29.5117 103.151 35.56C103.151 39.8874 103.743 43.4406 104.954 46.1934L104.954 46.1934L104.956 46.1978C106.193 48.937 108.06 50.9667 110.558 52.26L110.561 52.2616C113.042 53.5244 116.177 54.14 119.939 54.14C122.89 54.14 125.891 53.706 128.94 52.841L129.303 52.7379V52.36V47.176V46.5194L128.671 46.694C125.604 47.5398 122.963 47.956 120.739 47.956C118.326 47.956 116.431 47.6191 115.027 46.9773C113.648 46.3469 112.611 45.3056 111.911 43.8262C111.252 42.432 110.851 40.5451 110.732 38.14H130.531ZM123.017 26.9181L123.018 26.92C123.516 28.3964 123.808 30.4098 123.877 32.98H110.722C110.829 29.1391 111.462 26.5143 112.538 25.0038C113.671 23.4414 115.283 22.652 117.443 22.652C118.857 22.652 119.986 22.9844 120.864 23.6143L120.864 23.6143L120.868 23.6172C121.753 24.2382 122.482 25.3133 123.017 26.9181Z" fill="#D3D9D4" stroke="#D3D9D4"/>
<path id="d" d="M75.2573 52.3066L75.2572 52.3067L75.2628 52.31C77.288 53.5118 79.5749 54.108 82.11 54.108C84.0572 54.108 85.813 53.7092 87.3653 52.8993C88.6785 52.2141 89.7935 51.3307 90.7053 50.249L91.0538 53.0615L91.1081 53.5H91.55H97.022H97.522V53V1.28799V0.787994H97.022H90.558H90.058V1.28799V17.3853C88.8015 17.2219 87.5601 17.14 86.334 17.14C80.5901 17.14 76.1706 18.7244 73.1675 21.9719C70.1685 25.1934 68.714 29.9996 68.714 36.296C68.714 40.3905 69.2843 43.7827 70.452 46.4486L70.4534 46.4518C71.636 49.1017 73.2311 51.0684 75.2573 52.3066ZM78.7468 26.1561L78.7484 26.1541C80.3324 24.2731 82.7629 23.292 86.142 23.292C87.4467 23.292 88.752 23.4033 90.058 23.6262V44.4336C89.3699 45.4525 88.4819 46.2372 87.3885 46.7937C86.2631 47.3561 85.0815 47.636 83.838 47.636C82.2476 47.636 80.9243 47.29 79.8449 46.6227C78.7976 45.9753 77.9262 44.8161 77.2672 43.0671C76.6346 41.3102 76.306 38.8808 76.306 35.752C76.306 31.1822 77.1568 28.0243 78.7468 26.1561Z" fill="#D3D9D4" stroke="#D3D9D4"/>
<path id="o" d="M38.4225 49.5489L38.4238 49.5505C41.0748 52.6248 44.7872 54.14 49.4905 54.14C54.2141 54.14 57.928 52.6253 60.5585 49.5489C63.1872 46.4747 64.4545 41.8004 64.4545 35.624C64.4545 29.4684 63.187 24.8051 60.5585 21.7311C57.928 18.6547 54.2141 17.14 49.4905 17.14C44.7463 17.14 41.0214 18.6541 38.3905 21.7311L38.3903 21.7313C35.7824 24.785 34.5265 29.46 34.5265 35.656C34.5265 41.8116 35.794 46.4749 38.4225 49.5489ZM55.9591 28.1309L55.9591 28.1309L55.9607 28.1357C56.5759 29.9608 56.8945 32.4806 56.8945 35.72C56.8945 38.9172 56.5865 41.4063 55.9916 43.2115C55.3939 45.0253 54.5601 46.2472 53.5305 46.9538C52.4793 47.6536 51.1429 48.02 49.4905 48.02C47.862 48.02 46.537 47.6442 45.4851 46.9235C44.4558 46.2182 43.6207 44.9867 43.0219 43.1491C42.4266 41.322 42.1185 38.8003 42.1185 35.56C42.1185 32.3845 42.4264 29.9059 43.0214 28.1005L43.0219 28.0989C43.6207 26.2612 44.4548 25.0434 45.4798 24.36L45.4799 24.3601L45.4851 24.3565C46.537 23.6357 47.862 23.26 49.4905 23.26C51.119 23.26 52.444 23.6357 53.4959 24.3565C54.5252 25.0618 55.3603 26.2933 55.9591 28.1309Z" fill="#D3D9D4" stroke="#D3D9D4"/>
<path id="c" d="M6.85936 48.2541L6.86038 48.2552C10.5658 52.1812 15.9313 54.108 22.872 54.108C24.6487 54.108 26.3941 53.9564 28.1077 53.653C29.8368 53.3718 31.4414 52.9818 32.9202 52.4816L33.26 52.3667V52.008V46.376V45.6823L32.6019 45.9017C30.959 46.4493 29.3947 46.8478 27.9087 47.099L27.9075 47.0992C26.4425 47.3503 24.9561 47.476 23.448 47.476C20.2411 47.476 17.6198 46.9099 15.5584 45.8085C13.5464 44.701 11.9832 42.8495 10.8869 40.2029C9.81174 37.5345 9.26 33.9057 9.26 29.288C9.26 24.7772 9.81169 21.2117 10.8872 18.5642C11.9618 15.9192 13.5354 14.0557 15.5926 12.9263L15.5941 12.9255C17.6963 11.7621 20.3902 11.164 23.704 11.164C26.9266 11.164 29.8974 11.5642 32.6197 12.3599L33.26 12.5471V11.88V6.24799V5.86351L32.8884 5.76476C29.7953 4.94281 26.6268 4.53199 23.384 4.53199C16.2918 4.53199 10.8083 6.53483 7.01828 10.611C3.22517 14.6691 1.38 20.974 1.38 29.416C1.38 37.9998 3.16861 44.3202 6.85936 48.2541Z" fill="#D3D9D4" stroke="#D3D9D4"/>
</g>
</g>
</svg>
